<svg width="16" height="26" viewBox="0 0 16 26" fill="none" xmlns="http://www.w3.org/2000/svg">
<path fill-rule="evenodd" clip-rule="evenodd" d="M1.23248 24.7675C0.763807 24.2987 0.500519 23.663 0.500519 23C0.500519 22.3371 0.763807 21.7014 1.23248 21.2325L9.46499 13L1.23248 4.76755C0.77709 4.29604 0.525105 3.66454 0.5308 3.00904C0.536496 2.35355 0.799418 1.72652 1.26294 1.263C1.72646 0.799479 2.35349 0.536558 3.00898 0.530861C3.66447 0.525166 4.29598 0.777151 4.76748 1.23255L14.7675 11.2325C15.2362 11.7014 15.4995 12.3371 15.4995 13C15.4995 13.663 15.2362 14.2987 14.7675 14.7675L4.76748 24.7675C4.29867 25.2362 3.6629 25.4995 2.99998 25.4995C2.33707 25.4995 1.7013 25.2362 1.23248 24.7675Z" fill="white"/>
</svg>
