<svg width="32" height="32" viewBox="0 0 32 32" fill="none" xmlns="http://www.w3.org/2000/svg">
<path d="M11.7344 22.2812C11.7344 22.1875 11.6406 22.0937 11.5 22.0937C11.3594 22.0937 11.2656 22.1875 11.2656 22.2812C11.2656 22.375 11.3594 22.4687 11.5 22.4219C11.6406 22.4219 11.7344 22.375 11.7344 22.2812ZM10.2812 22.0469C10.2812 22.1406 10.375 22.2812 10.5156 22.2812C10.6094 22.3281 10.75 22.2812 10.7969 22.1875C10.7969 22.0937 10.75 22 10.6094 21.9531C10.4688 21.9062 10.3281 21.9531 10.2812 22.0469ZM12.3906 22C12.25 22 12.1562 22.0937 12.1562 22.2344C12.1562 22.3281 12.2969 22.375 12.4375 22.3281C12.5781 22.2812 12.6719 22.2344 12.625 22.1406C12.625 22.0469 12.4844 21.9531 12.3906 22ZM15.4375 4C8.96875 4 4 8.96875 4 15.4375C4 20.6406 7.23438 25.0937 11.9219 26.6875C12.5312 26.7812 12.7188 26.4062 12.7188 26.125C12.7188 25.7969 12.7188 24.2031 12.7188 23.2187C12.7188 23.2187 9.4375 23.9219 8.73438 21.8125C8.73438 21.8125 8.21875 20.4531 7.46875 20.125C7.46875 20.125 6.39062 19.375 7.51562 19.375C7.51562 19.375 8.6875 19.4687 9.34375 20.5937C10.375 22.4219 12.0625 21.9062 12.7656 21.5781C12.8594 20.8281 13.1406 20.3125 13.5156 19.9844C10.8906 19.7031 8.21875 19.3281 8.21875 14.8281C8.21875 13.5156 8.59375 12.9062 9.34375 12.0625C9.20312 11.7344 8.82812 10.5156 9.48438 8.875C10.4219 8.59375 12.7188 10.1406 12.7188 10.1406C13.6562 9.85937 14.6406 9.76562 15.625 9.76562C16.6562 9.76562 17.6406 9.85937 18.5781 10.1406C18.5781 10.1406 20.8281 8.54687 21.8125 8.875C22.4688 10.5156 22.0469 11.7344 21.9531 12.0625C22.7031 12.9062 23.1719 13.5156 23.1719 14.8281C23.1719 19.3281 20.4062 19.7031 17.7812 19.9844C18.2031 20.3594 18.5781 21.0625 18.5781 22.1875C18.5781 23.7344 18.5312 25.7031 18.5312 26.0781C18.5312 26.4062 18.7656 26.7812 19.375 26.6406C24.0625 25.0937 27.25 20.6406 27.25 15.4375C27.25 8.96875 21.9531 4 15.4375 4ZM8.54688 20.1719C8.45312 20.2187 8.5 20.3594 8.54688 20.4531C8.64062 20.5 8.73438 20.5469 8.82812 20.5C8.875 20.4531 8.875 20.3125 8.78125 20.2187C8.6875 20.1719 8.59375 20.125 8.54688 20.1719ZM8.03125 19.7969C7.98438 19.8906 8.03125 19.9375 8.125 19.9844C8.21875 20.0312 8.3125 20.0312 8.35938 19.9375C8.35938 19.8906 8.3125 19.8437 8.21875 19.7969C8.125 19.75 8.07812 19.75 8.03125 19.7969ZM9.53125 21.4844C9.48438 21.5312 9.48438 21.6719 9.625 21.7656C9.71875 21.8594 9.85938 21.9062 9.90625 21.8125C9.95312 21.7656 9.95312 21.625 9.85938 21.5312C9.76562 21.4375 9.625 21.3906 9.53125 21.4844ZM9.01562 20.7812C8.92188 20.8281 8.92188 20.9687 9.01562 21.0625C9.10938 21.1562 9.20312 21.2031 9.29688 21.1562C9.34375 21.1094 9.34375 20.9687 9.29688 20.875C9.20312 20.7812 9.10938 20.7344 9.01562 20.7812Z" fill="#111928"/>
</svg>
