<svg width="32" height="32" viewBox="0 0 32 32" fill="none" xmlns="http://www.w3.org/2000/svg">
<path d="M24.96 5.33321H7.16001C6.93058 5.32247 6.70128 5.35707 6.48524 5.43505C6.2692 5.51304 6.07066 5.63287 5.90098 5.78767C5.73132 5.94248 5.59384 6.12924 5.49644 6.33724C5.39904 6.54525 5.34361 6.77043 5.33334 6.99988V24.8399C5.34678 25.3201 5.54356 25.777 5.88325 26.1166C6.22294 26.4563 6.6798 26.6531 7.16001 26.6666H24.96C25.4268 26.6458 25.8669 26.4429 26.186 26.1014C26.5051 25.7599 26.6776 25.3071 26.6667 24.8399V6.99988C26.6705 6.77655 26.6287 6.5548 26.5437 6.34821C26.4588 6.14164 26.3325 5.95459 26.1727 5.79852C26.0129 5.64247 25.8229 5.52071 25.6144 5.44069C25.4059 5.36068 25.1832 5.32411 24.96 5.33321ZM12 23.1199H8.89334V13.6133H12V23.1199ZM10.52 12.1732C10.3032 12.1808 10.0872 12.1434 9.88556 12.0635C9.68389 11.9836 9.50093 11.8628 9.34818 11.7088C9.19542 11.5548 9.07616 11.3709 8.99789 11.1685C8.91961 10.9662 8.88402 10.7499 8.89334 10.5332C8.88376 10.3141 8.92006 10.0955 8.99994 9.89131C9.07982 9.68709 9.2015 9.50184 9.35717 9.34743C9.51285 9.193 9.69908 9.07283 9.90392 8.99461C10.1088 8.91639 10.3277 8.88185 10.5467 8.89321C10.7635 8.88567 10.9795 8.92301 11.1811 9.00293C11.3828 9.08285 11.5658 9.20361 11.7185 9.35763C11.8713 9.51164 11.9905 9.69557 12.0688 9.89788C12.1471 10.1002 12.1827 10.3165 12.1733 10.5332C12.1829 10.7523 12.1466 10.9709 12.0667 11.1751C11.9869 11.3793 11.8652 11.5646 11.7095 11.719C11.5538 11.8734 11.3676 11.9936 11.1628 12.0718C10.9579 12.15 10.739 12.1846 10.52 12.1732ZM23.12 23.1199H20V17.9199C20 16.6799 19.56 15.8266 18.4533 15.8266C18.1096 15.8295 17.7751 15.9387 17.4959 16.1393C17.2165 16.3398 17.0061 16.6218 16.8933 16.9466C16.8067 17.1901 16.7704 17.4486 16.7867 17.7066V23.1199H13.72V13.6133H16.7867V14.9466C17.0593 14.4457 17.4651 14.0299 17.9592 13.7451C18.4533 13.4605 19.0165 13.3179 19.5867 13.3332C21.6 13.3332 23.12 14.6666 23.12 17.5066V23.1199Z" fill="black"/>
</svg>
