<svg width="32" height="32" viewBox="0 0 32 32" fill="none" xmlns="http://www.w3.org/2000/svg">
<path d="M3.2048 9.4143L16 15.8111L28.7952 9.4143C28.7478 8.59901 28.3905 7.83268 27.7965 7.27227C27.2025 6.71185 26.4167 6.39975 25.6 6.3999H6.4C5.58334 6.39975 4.79752 6.71185 4.20349 7.27227C3.60946 7.83268 3.25217 8.59901 3.2048 9.4143Z" fill="#111928"/>
<path d="M28.8 12.9888L16 19.3888L3.20001 12.9888V22.4C3.20001 23.2487 3.53715 24.0626 4.13727 24.6627C4.73739 25.2628 5.55132 25.6 6.40001 25.6H25.6C26.4487 25.6 27.2626 25.2628 27.8628 24.6627C28.4629 24.0626 28.8 23.2487 28.8 22.4V12.9888Z" fill="#111928"/>
</svg>
